<svg width="417" height="250" viewBox="0 0 417 250" fill="none" xmlns="http://www.w3.org/2000/svg">
<g clip-path="url(#clip0_4_6)">
<rect width="417" height="250" fill="transparent"/>
<path d="M195.101 213.5H155.165L139.29 172.2H66.6123L51.6055 213.5H12.6621L83.4795 31.6816H122.299L195.101 213.5ZM127.508 141.566L102.455 74.0977L77.8985 141.566H127.508ZM202.478 175.921L237.452 170.588C238.94 177.368 241.958 182.535 246.506 186.091C251.053 189.563 257.42 191.3 265.605 191.3C274.618 191.3 281.398 189.646 285.945 186.339C289.005 184.024 290.534 180.923 290.534 177.037C290.534 174.391 289.707 172.2 288.054 170.464C286.317 168.81 282.431 167.281 276.396 165.875C248.284 159.674 230.465 154.01 222.941 148.884C212.523 141.773 207.314 131.893 207.314 119.242C207.314 107.832 211.821 98.2409 220.833 90.4688C229.845 82.6966 243.819 78.8105 262.753 78.8105C280.778 78.8105 294.172 81.7458 302.937 87.6162C311.701 93.4867 317.737 102.168 321.044 113.661L288.178 119.738C286.772 114.612 284.085 110.685 280.116 107.956C276.23 105.228 270.649 103.863 263.373 103.863C254.195 103.863 247.622 105.145 243.653 107.708C241.007 109.527 239.685 111.883 239.685 114.777C239.685 117.258 240.842 119.366 243.157 121.103C246.299 123.418 257.131 126.684 275.651 130.9C294.255 135.117 307.236 140.285 314.595 146.403C321.871 152.604 325.509 161.245 325.509 172.324C325.509 184.396 320.465 194.772 310.378 203.454C300.291 212.136 285.367 216.477 265.605 216.477C247.663 216.477 233.442 212.839 222.941 205.562C212.523 198.286 205.702 188.406 202.478 175.921ZM365.876 213.5V178.649H400.727V213.5H365.876Z" fill="#CE5FF9"/>
</g>
<defs>
<clipPath id="clip0_4_6">
<rect width="417" height="250" fill="transparent"/>
</clipPath>
</defs>
</svg>
